<svg width="21" height="21" viewBox="0 0 21 21" fill="none" xmlns="http://www.w3.org/2000/svg">
<path d="M17.5565 2.28674H3.43984C3.28116 2.28453 3.12359 2.31361 2.97615 2.37231C2.8287 2.431 2.69426 2.51817 2.58051 2.62883C2.46675 2.73949 2.37591 2.87147 2.31317 3.01725C2.25043 3.16302 2.21702 3.31972 2.21484 3.4784V17.7617C2.21702 17.9204 2.25043 18.0771 2.31317 18.2229C2.37591 18.3687 2.46675 18.5007 2.58051 18.6113C2.69426 18.722 2.8287 18.8091 2.97615 18.8678C3.12359 18.9265 3.28116 18.9556 3.43984 18.9534H17.5565C17.7152 18.9556 17.8728 18.9265 18.0202 18.8678C18.1677 18.8091 18.3021 18.722 18.4158 18.6113C18.5296 18.5007 18.6204 18.3687 18.6832 18.2229C18.7459 18.0771 18.7793 17.9204 18.7815 17.7617V3.4784C18.7793 3.31972 18.7459 3.16302 18.6832 3.01725C18.6204 2.87147 18.5296 2.73949 18.4158 2.62883C18.3021 2.51817 18.1677 2.431 18.0202 2.37231C17.8728 2.31361 17.7152 2.28453 17.5565 2.28674ZM7.23984 16.2367H4.73984V8.73674H7.23984V16.2367ZM5.98984 7.68674C5.64506 7.68674 5.3144 7.54977 5.0706 7.30598C4.82681 7.06218 4.68984 6.73152 4.68984 6.38674C4.68984 6.04196 4.82681 5.7113 5.0706 5.4675C5.3144 5.2237 5.64506 5.08674 5.98984 5.08674C6.17292 5.06597 6.35832 5.08412 6.53391 5.13997C6.70949 5.19583 6.87129 5.28815 7.00872 5.41087C7.14616 5.5336 7.25611 5.68397 7.3314 5.85214C7.40669 6.02031 7.44561 6.20248 7.44561 6.38674C7.44561 6.57099 7.40669 6.75317 7.3314 6.92134C7.25611 7.08951 7.14616 7.23988 7.00872 7.3626C6.87129 7.48533 6.70949 7.57764 6.53391 7.6335C6.35832 7.68936 6.17292 7.7075 5.98984 7.68674ZM16.2565 16.2367H13.7565V12.2117C13.7565 11.2034 13.3982 10.5451 12.4898 10.5451C12.2087 10.5471 11.935 10.6353 11.7055 10.7977C11.4761 10.9601 11.3019 11.189 11.2065 11.4534C11.1413 11.6493 11.113 11.8555 11.1232 12.0617V16.2284H8.62318C8.62318 16.2284 8.62318 9.41174 8.62318 8.7284H11.1232V9.78674C11.3503 9.39266 11.6806 9.068 12.0785 8.84774C12.4765 8.62748 12.927 8.51995 13.3815 8.53674C15.0482 8.53674 16.2565 9.61174 16.2565 11.9201V16.2367Z" fill="white"/>
</svg>
