<svg width="21" height="21" viewBox="0 0 21 21" fill="none" xmlns="http://www.w3.org/2000/svg">
<path d="M18.8346 5.45338C18.2083 5.72513 17.5458 5.90477 16.868 5.98671C17.5831 5.55948 18.119 4.88737 18.3763 4.09505C17.7043 4.4951 16.9686 4.77696 16.2013 4.92838C15.6884 4.37219 15.0054 4.00196 14.2595 3.87576C13.5135 3.74955 12.7468 3.87451 12.0795 4.23104C11.4122 4.58756 10.8821 5.15549 10.5723 5.84574C10.2626 6.536 10.1907 7.30954 10.368 8.04505C9.00916 7.97632 7.68 7.62251 6.46685 7.0066C5.25369 6.39069 4.18367 5.52646 3.3263 4.47005C3.02558 4.99519 2.86757 5.5899 2.86797 6.19505C2.8669 6.75703 3.00482 7.31056 3.26943 7.80635C3.53405 8.30214 3.91715 8.72481 4.38464 9.03671C3.84128 9.02193 3.30954 8.87613 2.83464 8.61171V8.65338C2.83871 9.44079 3.11463 10.2026 3.61573 10.81C4.11683 11.4174 4.81235 11.8331 5.58464 11.9867C5.28735 12.0772 4.9787 12.1249 4.66797 12.1284C4.45288 12.1259 4.23832 12.1064 4.0263 12.07C4.24623 12.7474 4.67182 13.3393 5.24386 13.7635C5.81591 14.1877 6.50595 14.423 7.21797 14.4367C6.01564 15.3828 4.5312 15.8991 3.0013 15.9034C2.72275 15.9043 2.44442 15.8876 2.16797 15.8534C3.72999 16.8619 5.55031 17.3973 7.40964 17.395C8.69271 17.4084 9.96558 17.1659 11.1539 16.6818C12.3422 16.1977 13.4222 15.4816 14.3306 14.5755C15.2391 13.6693 15.9579 12.5912 16.4451 11.4041C16.9323 10.2171 17.178 8.94482 17.168 7.66171C17.168 7.52005 17.168 7.37005 17.168 7.22005C17.8219 6.73239 18.3859 6.13457 18.8346 5.45338Z" fill="white"/>
</svg>
