<svg width="21" height="21" viewBox="0 0 21 21" fill="none" xmlns="http://www.w3.org/2000/svg">
<path d="M19.6649 8.71177C19.7061 7.51898 19.4453 6.33512 18.9066 5.2701C18.5411 4.8331 18.0338 4.5382 17.4732 4.43677C15.1545 4.22637 12.8262 4.14014 10.4982 4.17844C8.17877 4.1384 5.85882 4.22185 3.54823 4.42844C3.09142 4.51153 2.66866 4.72581 2.33157 5.0451C1.58157 5.73677 1.49823 6.9201 1.4149 7.9201C1.29399 9.71807 1.29399 11.5221 1.4149 13.3201C1.43901 13.8829 1.52281 14.4416 1.6649 14.9868C1.76538 15.4077 1.96867 15.7971 2.25657 16.1201C2.59596 16.4563 3.02855 16.6828 3.49823 16.7701C5.29483 16.9919 7.10508 17.0838 8.9149 17.0451C11.8316 17.0868 14.3899 17.0451 17.4149 16.8118C17.8961 16.7298 18.3409 16.5031 18.6899 16.1618C18.9232 15.9284 19.0975 15.6427 19.1982 15.3284C19.4963 14.414 19.6426 13.4569 19.6316 12.4951C19.6649 12.0284 19.6649 9.21177 19.6649 8.71177ZM8.6149 12.9951V7.83677L13.5482 10.4284C12.1649 11.1951 10.3399 12.0618 8.6149 12.9951Z" fill="white"/>
</svg>
