<svg width="62" height="61" viewBox="0 0 62 61" fill="none" xmlns="http://www.w3.org/2000/svg">
<path d="M44.0049 1.68066C47.0807 1.6807 49.6917 2.35949 51.8525 3.64355C54.0129 4.92738 55.6326 6.76423 56.7979 8.93652V8.9375C59.103 13.2282 59.6867 18.8974 59.3477 24.6504C59.0044 30.4519 57.7086 36.5546 56.0547 41.8828C54.4045 47.1878 52.3584 51.8488 50.4463 54.7207C48.363 57.8426 45.6847 59.127 43.042 58.7559H43.041C40.5339 58.404 38.4971 56.615 37.4609 54.54L37.46 54.5391L37.2432 54.0869C36.7508 53.021 36.3572 51.8823 35.9551 50.6602C35.5627 49.4676 35.1553 48.1728 34.6494 46.9072L34.4268 46.3672C34.319 46.1129 33.9452 45.1343 33.4795 44.2861C33.245 43.8591 32.9326 43.3603 32.543 42.9502C32.2069 42.5965 31.5285 42.0096 30.5605 42.0225V42.0215C29.6616 42.0216 28.9847 42.4642 28.5459 42.8926C28.1169 43.3114 27.8044 43.8191 27.5801 44.248C27.1784 45.0165 26.7819 46.1516 26.6895 46.3701C26.0768 47.8027 25.6097 49.2988 25.1621 50.6611C24.7034 52.0575 24.2553 53.345 23.6582 54.5391C22.618 56.6159 20.5805 58.4043 18.0771 58.7559C15.4305 59.1273 12.752 57.8423 10.6689 54.7207C8.87625 52.0282 6.96559 47.7631 5.37402 42.8691L5.06055 41.8828C3.40661 36.5545 2.11137 30.4519 1.77148 24.6543V24.6533L1.71777 23.5742C1.5083 18.1908 2.15638 12.9599 4.31738 8.9375V8.93652C5.48242 6.76463 7.10097 4.92735 9.26074 3.64355L9.26172 3.64453C11.4268 2.35969 14.0382 1.6807 17.1104 1.68066C19.6668 1.68066 21.916 2.8768 23.7949 3.97559L24.5771 4.43652C26.7681 5.72838 28.5595 6.72363 30.5576 6.72363C32.5558 6.72363 34.3471 5.72839 36.5381 4.43652H36.5391C38.5659 3.2401 41.0833 1.68066 44.0049 1.68066ZM44.0049 5.04297C43.0268 5.04297 42.1299 5.31141 41.2109 5.72363C40.3151 6.12552 39.294 6.71363 38.0762 7.42969L38.0723 7.43164C36.0388 8.63466 33.5219 10.085 30.5576 10.085C27.5022 10.085 24.9351 8.5482 22.8691 7.33008L22.8672 7.3291L22.0283 6.83984C21.2199 6.37511 20.5012 5.98616 19.8447 5.69629C18.947 5.2999 18.0671 5.04297 17.1104 5.04297C14.5417 5.04301 12.5449 5.60471 10.9824 6.53125L10.9805 6.53223C9.42519 7.45706 8.19901 8.8161 7.2793 10.5264V10.5273C5.523 13.7978 4.87951 18.3357 5.0752 23.4297L5.12598 24.4551C5.4484 29.922 6.67703 35.7533 8.27051 40.8867L8.27148 40.8877C9.87474 46.0386 11.8047 50.3642 13.4668 52.8555V52.8545C13.736 53.2584 14.1895 53.9069 14.7852 54.4395C15.3584 54.9519 16.3421 55.6022 17.6084 55.4258H17.6094C18.8016 55.2586 19.9988 54.339 20.6514 53.0342C21.3377 51.6615 21.8216 50.2201 22.2549 48.877C22.6998 47.4978 23.0863 46.2393 23.5977 45.043L23.5986 45.041C24.2424 43.5313 25.0565 41.99 26.125 40.8037L26.124 40.8027C27.2198 39.5918 28.6827 38.6602 30.5576 38.6602C32.4322 38.6602 33.8945 39.592 34.9902 40.8027V40.8037C36.0586 41.9899 36.8731 43.5308 37.5166 45.043L37.5176 45.0469C38.0288 46.2413 38.415 47.4986 38.8604 48.8779C39.2937 50.22 39.7787 51.6608 40.4658 53.0342V53.0352C41.1174 54.3432 42.3157 55.2553 43.501 55.4277L43.5146 55.4297C44.7795 55.6025 45.7611 54.9499 46.332 54.4385C46.9261 53.9062 47.3781 53.2585 47.6475 52.8545L47.6484 52.8555C49.3101 50.3647 51.2442 46.0431 52.8447 40.8867C54.4383 35.7531 55.6673 29.9218 55.9932 24.4521V24.4512C56.3063 19.1179 55.7462 14.3241 54.0078 10.8584L53.8359 10.5273L53.6602 10.21C52.7617 8.64479 51.6025 7.40238 50.1338 6.53125C48.5714 5.60464 46.5775 5.043 44.0049 5.04297Z" fill="black" stroke="#005B10" stroke-width="3.36175"/>
</svg>
