<svg width="84" height="70" viewBox="0 0 84 70" fill="none" xmlns="http://www.w3.org/2000/svg">
<path d="M26.2002 47.4746C28.0793 49.2908 30.1136 51.2387 32.3057 53.3154C34.7264 55.6087 37.4621 58.1215 40.5107 60.8525L41.7773 61.9873L43.0449 60.8525C46.0935 58.1215 48.8284 55.6087 51.249 53.3154C53.4413 51.2385 55.4762 49.2909 57.3555 47.4746H62.9277C61.2753 49.175 59.4571 50.9622 57.4707 52.834C54.1932 55.9224 50.3754 59.4242 46.0166 63.3408L41.7773 67.1416L37.5381 63.3408C33.1809 59.4256 29.3824 55.9255 26.1406 52.8398C24.172 50.9661 22.3647 49.1774 20.7168 47.4746H26.2002ZM45.3818 20.8887C45.8161 20.8907 46.1881 20.9777 46.5225 21.1357C46.8006 21.2672 47.0288 21.4597 47.2236 21.752L47.2305 21.7627L53.7822 31.4473L54.3467 32.2822H81.6562V36.0801H53.1709C52.8706 36.08 52.5852 36.0093 52.2891 35.8447C51.9742 35.6697 51.7792 35.473 51.6484 35.2637L51.6309 35.2363L51.6133 35.21L48.29 30.2725L46.1289 27.0625L44.9121 30.7363L39.7852 46.2129L39.7832 46.2168C39.6437 46.6406 39.4286 46.939 39.1348 47.1699C38.8922 47.3605 38.5999 47.4746 38.1689 47.4746H38.1621C37.7409 47.4761 37.3746 47.3917 37.0391 47.2324C36.7555 47.0977 36.5255 46.9029 36.3311 46.6113L36.3242 46.6006L29.7725 36.915L29.208 36.0801H1.89941V32.2822H30.4785C30.779 32.2822 31.0641 32.354 31.3604 32.5186C31.6753 32.6935 31.8711 32.8893 32.002 33.0986L32.0166 33.123L32.0322 33.1465L35.2598 37.9883L37.4141 41.2188L38.6416 37.5352L43.7666 22.1611C43.9105 21.7351 44.1312 21.4297 44.4316 21.1914C44.6695 21.0028 44.9556 20.8893 45.3818 20.8887ZM58.8682 1.89941C64.3454 1.89941 68.8221 3.71374 72.4326 7.32422C76.0431 10.9347 77.8584 15.4114 77.8584 20.8887H74.0596C74.0596 16.621 72.6174 12.9621 69.7061 10.0508C66.7947 7.13943 63.1358 5.69727 58.8682 5.69727C55.5116 5.69727 52.3946 6.65101 49.5586 8.53125C47.1267 10.1436 45.2966 12.1754 44.1289 14.6221H39.4268C38.259 12.1733 36.4282 10.141 33.9951 8.53027C31.1597 6.65331 28.0437 5.70016 24.6885 5.69727H24.6865C20.4189 5.6973 16.76 7.13944 13.8486 10.0508C10.9373 12.9621 9.49513 16.621 9.49512 20.8887H5.69727C5.69728 15.4114 7.51161 10.9347 11.1221 7.32422C14.7325 3.71374 19.2093 1.89945 24.6865 1.89941C27.7003 1.89941 30.5588 2.53431 33.2812 3.80859C36.0066 5.08427 38.3522 6.87833 40.3301 9.20508L41.7773 10.9082L43.2246 9.20508C45.2025 6.87829 47.5481 5.08429 50.2734 3.80859C52.9959 2.53427 55.8543 1.89942 58.8682 1.89941Z" fill="black" stroke="#005B10" stroke-width="3.79795"/>
</svg>
